<svg xmlns="http://www.w3.org/2000/svg" viewBox="0 0 1200 630" fill="none">
  <defs>
    <linearGradient id="bg" x1="72" y1="48" x2="1044" y2="606" gradientUnits="userSpaceOnUse">
      <stop stop-color="#122044"/>
      <stop offset=".55" stop-color="#091221"/>
      <stop offset="1" stop-color="#050B14"/>
    </linearGradient>
    <radialGradient id="glowLeft" cx="0" cy="0" r="1" gradientUnits="userSpaceOnUse" gradientTransform="translate(214 118) rotate(50.155) scale(356.639 397.473)">
      <stop stop-color="#19D3FF" stop-opacity=".34"/>
      <stop offset="1" stop-color="#19D3FF" stop-opacity="0"/>
    </radialGradient>
    <radialGradient id="glowRight" cx="0" cy="0" r="1" gradientUnits="userSpaceOnUse" gradientTransform="translate(978 146) rotate(134.002) scale(296.186 337.102)">
      <stop stop-color="#2BFF9A" stop-opacity=".28"/>
      <stop offset="1" stop-color="#2BFF9A" stop-opacity="0"/>
    </radialGradient>
    <linearGradient id="neon" x1="741" y1="194" x2="1017" y2="467" gradientUnits="userSpaceOnUse">
      <stop stop-color="#19D3FF"/>
      <stop offset="1" stop-color="#2BFF9A"/>
    </linearGradient>
    <filter id="softGlow" x="636" y="106" width="463" height="406" filterUnits="userSpaceOnUse" color-interpolation-filters="sRGB">
      <feGaussianBlur stdDeviation="18" result="blur"/>
      <feMerge>
        <feMergeNode in="blur"/>
        <feMergeNode in="SourceGraphic"/>
      </feMerge>
    </filter>
  </defs>
  <rect width="1200" height="630" rx="36" fill="url(#bg)"/>
  <rect x="28" y="28" width="1144" height="574" rx="30" stroke="rgba(255,255,255,.08)"/>
  <ellipse cx="214" cy="118" rx="296" ry="246" fill="url(#glowLeft)"/>
  <ellipse cx="978" cy="146" rx="246" ry="226" fill="url(#glowRight)"/>
  <path d="M0 541c166-70 331-105 495-105 240 0 432 76 705 76" stroke="rgba(255,255,255,.05)" stroke-width="2"/>
  <path d="M0 574c166-70 331-105 495-105 240 0 432 76 705 76" stroke="rgba(255,255,255,.03)" stroke-width="2"/>

  <g opacity=".35">
    <path d="M73 94h168M73 116h128M73 138h148" stroke="#DCE7FF" stroke-width="6" stroke-linecap="round"/>
  </g>

  <g transform="translate(74 120)">
    <rect x="0" y="0" width="104" height="104" rx="28" fill="rgba(6,12,24,.58)" stroke="rgba(43,255,154,.35)"/>
    <path d="M27 25v34c0 17.6 10.9 30.7 23.5 36.4C63.1 89.7 74 76.6 74 59V25" stroke="url(#neon)" stroke-width="8" stroke-linecap="round" stroke-linejoin="round"/>
    <path d="M39 45h23M50.5 34v31" stroke="#F0FDFF" stroke-width="6.5" stroke-linecap="round"/>
    <text x="51" y="82" text-anchor="middle" font-family="Anton, Arial, sans-serif" font-size="28" fill="#F4FBFF">26</text>
  </g>

  <g transform="translate(74 276)">
    <text x="0" y="0" font-family="Anton, Arial, sans-serif" font-size="114" letter-spacing="2.2" fill="#F4FBFF">MONDIAL 2026</text>
    <text x="2" y="64" font-family="Manrope, Arial, sans-serif" font-size="32" font-weight="800" fill="#2BFF9A">Bracket Predictor premium, live scores and knockout simulation</text>
    <text x="2" y="114" font-family="Manrope, Arial, sans-serif" font-size="26" font-weight="600" fill="#8A97B6">Simule les groupes, suis les matchs du jour et projette tout le tableau final.</text>
  </g>

  <g filter="url(#softGlow)" transform="translate(722 150)">
    <path d="M0 24h86v44H0zM0 138h86v44H0zM0 252h86v44H0zM144 81h86v44h-86zM144 195h86v44h-86zM288 138h86v44h-86z" fill="rgba(255,255,255,.08)" stroke="url(#neon)" stroke-width="4"/>
    <path d="M86 46h58v57M86 160h58v57M86 274h58v-57M230 103h58v57M230 217h58v-57" stroke="url(#neon)" stroke-width="4" stroke-linecap="round" stroke-linejoin="round"/>
    <path d="M46 40h40M46 154h40M46 268h40M190 97h40M190 211h40M334 154h40" stroke="#EAFEFF" stroke-width="4.5" stroke-linecap="round"/>
  </g>
</svg>
